<svg width="1653" height="993" xmlns="http://www.w3.org/2000/svg" xmlns:xlink="http://www.w3.org/1999/xlink" overflow="hidden"><defs><clipPath id="clip0"><rect x="1727" y="607" width="1653" height="993"/></clipPath><clipPath id="clip1"><rect x="1728" y="607" width="1650" height="990"/></clipPath><clipPath id="clip2"><rect x="1728" y="607" width="1650" height="990"/></clipPath><clipPath id="clip3"><rect x="1838" y="658" width="1493" height="732"/></clipPath><clipPath id="clip4"><rect x="1838" y="658" width="1493" height="732"/></clipPath><clipPath id="clip5"><rect x="1728" y="607" width="1650" height="990"/></clipPath><clipPath id="clip6"><rect x="1728" y="607" width="1650" height="990"/></clipPath><clipPath id="clip7"><rect x="1728" y="607" width="1650" height="990"/></clipPath><clipPath id="clip8"><rect x="1728" y="607" width="1650" height="990"/></clipPath><clipPath id="clip9"><rect x="1728" y="607" width="1650" height="990"/></clipPath><clipPath id="clip10"><rect x="1728" y="607" width="1650" height="990"/></clipPath><clipPath id="clip11"><rect x="1728" y="607" width="1650" height="990"/></clipPath><clipPath id="clip12"><rect x="1728" y="607" width="1650" height="990"/></clipPath><clipPath id="clip13"><rect x="1728" y="607" width="1650" height="990"/></clipPath><clipPath id="clip14"><rect x="1728" y="607" width="1650" height="990"/></clipPath><clipPath id="clip15"><rect x="1728" y="607" width="1650" height="990"/></clipPath><clipPath id="clip16"><rect x="1728" y="607" width="1650" height="990"/></clipPath><clipPath id="clip17"><rect x="1728" y="607" width="1650" height="990"/></clipPath><clipPath id="clip18"><rect x="1728" y="607" width="1650" height="990"/></clipPath><clipPath id="clip19"><rect x="1728" y="607" width="1650" height="990"/></clipPath><clipPath id="clip20"><rect x="1728" y="607" width="1650" height="990"/></clipPath><clipPath id="clip21"><rect x="1728" y="607" width="1650" height="990"/></clipPath><clipPath id="clip22"><rect x="1728" y="607" width="1650" height="990"/></clipPath></defs><g clip-path="url(#clip0)" transform="translate(-1727 -607)"><rect x="1728" y="608" width="1650" height="990" fill="#FFFFFF"/><g clip-path="url(#clip1)"><path d="M1838.5 1265.54 3327.5 1265.54M1838.5 1143.54 3327.5 1143.54M1838.5 1022.53 3327.5 1022.53M1838.5 900.53 3327.5 900.53M1838.5 779.526 3327.5 779.526M1838.5 658.5 3327.5 658.5" stroke="#D9D9D9" stroke-width="3.4375" stroke-linejoin="round" stroke-miterlimit="10" fill="none"/></g><g clip-path="url(#clip2)"><path d="M1838.5 1386.5 3327.5 1386.5" stroke="#D9D9D9" stroke-width="3.4375" stroke-linejoin="round" stroke-miterlimit="10" fill="none" fill-rule="evenodd"/></g><g clip-path="url(#clip3)"><path d="M1945 925 2157.07 925 2370.08 1022.03 2583.08 1047.03 2796.09 1095.04 3009.1 1119 3222 1119" stroke="#4472C4" stroke-width="10.3125" stroke-linecap="round" stroke-linejoin="round" stroke-miterlimit="10" fill="none"/></g><g clip-path="url(#clip4)"><path d="M1945 755 2157.07 828.027 2370.08 901.03 2583.08 925.03 2796.09 998 3009.1 925.03 3222 974.032" stroke="#ED7D31" stroke-width="10.3125" stroke-linecap="round" stroke-linejoin="round" stroke-miterlimit="10" fill="none"/></g><g clip-path="url(#clip5)"><text fill="#595959" font-family="Calibri,Calibri_MSFontService,sans-serif" font-weight="400" font-size="41" transform="matrix(1 0 0 1 1779.07 1398)">0</text></g><g clip-path="url(#clip6)"><text fill="#595959" font-family="Calibri,Calibri_MSFontService,sans-serif" font-weight="400" font-size="41" transform="matrix(1 0 0 1 1779.07 1277)">5</text></g><g clip-path="url(#clip7)"><text fill="#595959" font-family="Calibri,Calibri_MSFontService,sans-serif" font-weight="400" font-size="41" transform="matrix(1 0 0 1 1758.17 1155)">10</text></g><g clip-path="url(#clip8)"><text fill="#595959" font-family="Calibri,Calibri_MSFontService,sans-serif" font-weight="400" font-size="41" transform="matrix(1 0 0 1 1758.17 1034)">15</text></g><g clip-path="url(#clip9)"><text fill="#595959" font-family="Calibri,Calibri_MSFontService,sans-serif" font-weight="400" font-size="41" transform="matrix(1 0 0 1 1758.17 913)">20</text></g><g clip-path="url(#clip10)"><text fill="#595959" font-family="Calibri,Calibri_MSFontService,sans-serif" font-weight="400" font-size="41" transform="matrix(1 0 0 1 1758.17 791)">25</text></g><g clip-path="url(#clip11)"><text fill="#595959" font-family="Calibri,Calibri_MSFontService,sans-serif" font-weight="400" font-size="41" transform="matrix(1 0 0 1 1758.17 670)">30</text></g><g clip-path="url(#clip12)"><text fill="#595959" font-family="Calibri,Calibri_MSFontService,sans-serif" font-weight="400" font-size="41" transform="matrix(1 0 0 1 1923.74 1452)">13</text></g><g clip-path="url(#clip13)"><text fill="#595959" font-family="Calibri,Calibri_MSFontService,sans-serif" font-weight="400" font-size="41" transform="matrix(1 0 0 1 2136.56 1452)">14</text></g><g clip-path="url(#clip14)"><text fill="#595959" font-family="Calibri,Calibri_MSFontService,sans-serif" font-weight="400" font-size="41" transform="matrix(1 0 0 1 2349.38 1452)">15</text></g><g clip-path="url(#clip15)"><text fill="#595959" font-family="Calibri,Calibri_MSFontService,sans-serif" font-weight="400" font-size="41" transform="matrix(1 0 0 1 2562.2 1452)">16</text></g><g clip-path="url(#clip16)"><text fill="#595959" font-family="Calibri,Calibri_MSFontService,sans-serif" font-weight="400" font-size="41" transform="matrix(1 0 0 1 2775.01 1452)">17</text></g><g clip-path="url(#clip17)"><text fill="#595959" font-family="Calibri,Calibri_MSFontService,sans-serif" font-weight="400" font-size="41" transform="matrix(1 0 0 1 2987.83 1452)">18</text></g><g clip-path="url(#clip18)"><text fill="#595959" font-family="Calibri,Calibri_MSFontService,sans-serif" font-weight="400" font-size="41" transform="matrix(1 0 0 1 3200.65 1452)">19</text></g><g clip-path="url(#clip19)"><path d="M2362 1532 2450 1532" stroke="#4472C4" stroke-width="10.3125" stroke-linecap="round" stroke-linejoin="round" stroke-miterlimit="10" fill="none" fill-rule="evenodd"/></g><g clip-path="url(#clip20)"><text fill="#595959" font-family="Yu Gothic,Yu Gothic_MSFontService,sans-serif" font-weight="400" font-size="41" transform="matrix(1 0 0 1 2459.76 1544)">最低</text></g><g clip-path="url(#clip21)"><path d="M2581 1532 2669 1532" stroke="#ED7D31" stroke-width="10.3125" stroke-linecap="round" stroke-linejoin="round" stroke-miterlimit="10" fill="none" fill-rule="evenodd"/></g><g clip-path="url(#clip22)"><text fill="#595959" font-family="Yu Gothic,Yu Gothic_MSFontService,sans-serif" font-weight="400" font-size="41" transform="matrix(1 0 0 1 2677.93 1544)">最高</text></g><rect x="1728.5" y="608.5" width="1650" height="990" stroke="#D9D9D9" stroke-width="3.4375" stroke-linejoin="round" stroke-miterlimit="10" fill="none"/></g></svg>